<svg width="516" height="63" viewBox="0 0 516 63" fill="none" xmlns="http://www.w3.org/2000/svg">
<path fill-rule="evenodd" clip-rule="evenodd" d="M74.4347 25.3719C72.6971 8.38085 62.935 0 46.6968 0H38.2136C21.9754 0 12.2134 8.38085 10.4757 25.3719H0V37.3574H10.529C12.398 53.8645 22.0711 61.9511 38.2136 61.9511H46.6968C62.9153 61.9511 72.5348 53.9203 74.386 37.3574H85.1439V25.3719H74.4347ZM21.0136 31.1312C21.0136 16.8887 26.3059 10.8181 38.2136 10.8181H46.6968C58.6045 10.8181 63.7412 16.8887 63.7412 31.0534C63.7412 45.2181 58.6045 51.133 46.6968 51.133H38.2136C26.1502 51.133 21.0136 45.2959 21.0136 31.1312ZM124.447 0C142.503 0 152.387 10.1176 152.387 31.0534C152.387 51.9113 142.659 62.029 124.447 62.029H102.577C99.0751 62.029 97.4407 60.3946 97.4407 56.9701V5.05882C97.4407 1.63439 99.0751 0 102.577 0H124.447ZM108.259 50.0434C108.259 50.8995 108.648 51.133 109.426 51.133H124.369C136.433 51.133 141.414 45.1403 141.414 30.8977C141.414 16.733 136.355 10.8181 124.369 10.8181H109.426C108.57 10.8181 108.259 11.1294 108.259 11.9077V50.0434ZM192.936 26.5394L175.58 0H162.505L187.488 35.2561V61.9511H198.384V35.2561L223.367 0H210.525L192.936 26.5394ZM286.563 0V10.8181H254.809C249.205 10.8181 246.715 13.8534 246.715 18.1339C246.715 21.8697 248.661 25.4498 255.899 25.4498H270.375C287.263 25.4498 291.233 34.7891 291.233 43.7394C291.233 54.2462 285.629 61.9511 271.464 61.9511H236.909V51.133H271.776C277.691 51.133 280.337 47.9421 280.337 43.4281C280.337 39.381 278.235 35.7231 270.608 35.7231H256.21C239.71 35.7231 235.819 26.4615 235.819 17.8226C235.819 7.54932 241.345 0 255.12 0H286.563ZM361.122 10.8181V0H329.68C315.904 0 310.378 7.54932 310.378 17.8226C310.378 26.4615 314.27 35.7231 330.769 35.7231H345.167C352.795 35.7231 354.896 39.381 354.896 43.4281C354.896 47.9421 352.25 51.133 346.335 51.133H311.468V61.9511H346.024C360.188 61.9511 365.792 54.2462 365.792 43.7394C365.792 34.7891 361.823 25.4498 344.934 25.4498H330.458C323.22 25.4498 321.274 21.8697 321.274 18.1339C321.274 13.8534 323.765 10.8181 329.368 10.8181H361.122ZM437.316 0V10.8181H406.262C399.725 10.8181 396.923 13.8534 396.923 18.6009C396.923 23.6597 400.114 25.9167 406.418 25.9167H436.927V35.8009H406.185C399.958 35.8009 396.69 38.2914 396.69 43.3502C396.69 48.2534 399.725 51.133 406.029 51.133H437.472V61.9511H406.029C391.319 61.9511 385.405 54.7131 385.405 45.0624C385.405 37.9801 388.595 33.2326 394.277 30.8199C388.518 28.4072 385.56 23.6597 385.56 16.8887C385.56 7.00453 391.709 0 406.262 0H437.316ZM485.647 26.5394L468.291 0H455.138L480.199 35.2561V61.9511H491.095V35.2561L516 0H503.158L485.647 26.5394Z" fill="white"/>
</svg>
