<svg width="669" height="157" viewBox="0 0 669 157" fill="none" xmlns="http://www.w3.org/2000/svg">
<path d="M186.546 124C185.666 124 184.873 123.692 184.169 123.076C183.553 122.371 183.244 121.579 183.244 120.698V34.8571C183.244 33.8887 183.553 33.0963 184.169 32.48C184.873 31.8637 185.666 31.5555 186.546 31.5555H223.524C234.793 31.5555 243.641 34.1528 250.069 39.3473C256.584 44.5418 259.841 52.1134 259.841 62.0622C259.841 71.923 256.628 79.3625 250.201 84.381C243.774 89.3113 234.881 91.7765 223.524 91.7765H207.808V120.698C207.808 121.667 207.456 122.459 206.752 123.076C206.135 123.692 205.343 124 204.375 124H186.546ZM222.863 73.5517C226.737 73.5517 229.775 72.5833 231.976 70.6463C234.177 68.6214 235.277 65.672 235.277 61.7981C235.277 58.1884 234.221 55.327 232.108 53.214C230.083 51.0129 227.001 49.9124 222.863 49.9124H207.412V73.5517H222.863ZM302.752 125.321C291.834 125.321 283.426 122.723 277.527 117.529C271.629 112.334 268.415 105.027 267.887 95.6063C267.799 94.4618 267.755 92.4808 267.755 89.6635C267.755 86.8461 267.799 84.8652 267.887 83.7206C268.415 74.3881 271.717 67.1247 277.792 61.9302C283.867 56.6476 292.187 54.0063 302.752 54.0063C313.405 54.0063 321.769 56.6476 327.844 61.9302C333.919 67.1247 337.22 74.3881 337.748 83.7206C337.836 84.8652 337.88 86.8461 337.88 89.6635C337.88 92.4808 337.836 94.4618 337.748 95.6063C337.22 105.027 334.007 112.334 328.108 117.529C322.209 122.723 313.757 125.321 302.752 125.321ZM302.752 109.209C306.625 109.209 309.487 108.064 311.336 105.775C313.185 103.398 314.241 99.7884 314.505 94.946C314.593 94.0656 314.637 92.3048 314.637 89.6635C314.637 87.0222 314.593 85.2614 314.505 84.381C314.241 79.6267 313.141 76.061 311.204 73.6838C309.355 71.3067 306.537 70.1181 302.752 70.1181C295.444 70.1181 291.57 74.8724 291.13 84.381L290.998 89.6635L291.13 94.946C291.306 99.7884 292.319 103.398 294.167 105.775C296.104 108.064 298.966 109.209 302.752 109.209ZM354.168 45.4222C353.199 45.4222 352.407 45.1141 351.79 44.4978C351.174 43.8815 350.866 43.0891 350.866 42.1206V30.2349C350.866 29.2665 351.174 28.4741 351.79 27.8578C352.407 27.2415 353.199 26.9333 354.168 26.9333H370.015C370.984 26.9333 371.776 27.2415 372.392 27.8578C373.009 28.4741 373.317 29.2665 373.317 30.2349V42.1206C373.317 43.0891 373.009 43.8815 372.392 44.4978C371.776 45.1141 370.984 45.4222 370.015 45.4222H354.168ZM354.3 124C353.331 124 352.539 123.692 351.923 123.076C351.306 122.459 350.998 121.667 350.998 120.698V58.6286C350.998 57.6601 351.306 56.8677 351.923 56.2514C352.539 55.6351 353.331 55.327 354.3 55.327H369.883C370.852 55.327 371.644 55.6351 372.26 56.2514C372.877 56.8677 373.185 57.6601 373.185 58.6286V120.698C373.185 121.579 372.877 122.371 372.26 123.076C371.644 123.692 370.852 124 369.883 124H354.3ZM392.087 124C391.119 124 390.327 123.692 389.71 123.076C389.094 122.459 388.786 121.667 388.786 120.698V58.6286C388.786 57.6601 389.094 56.8677 389.71 56.2514C390.327 55.6351 391.119 55.327 392.087 55.327H407.275C408.243 55.327 409.036 55.6351 409.652 56.2514C410.356 56.8677 410.708 57.6601 410.708 58.6286V63.647C413.085 60.7416 416.123 58.4085 419.821 56.6476C423.607 54.8868 427.877 54.0063 432.631 54.0063C440.379 54.0063 446.674 56.6476 451.516 61.9302C456.358 67.1247 458.779 74.4322 458.779 83.8527V120.698C458.779 121.579 458.471 122.371 457.855 123.076C457.239 123.692 456.446 124 455.478 124H438.838C437.957 124 437.165 123.692 436.461 123.076C435.844 122.371 435.536 121.579 435.536 120.698V84.6451C435.536 80.5071 434.524 77.3376 432.499 75.1365C430.474 72.8474 427.568 71.7029 423.783 71.7029C420.085 71.7029 417.179 72.8474 415.066 75.1365C412.953 77.3376 411.897 80.5071 411.897 84.6451V120.698C411.897 121.579 411.589 122.371 410.972 123.076C410.356 123.692 409.564 124 408.595 124H392.087ZM508.002 124C489.777 124 480.665 115.328 480.665 97.9835V72.6273H470.364C469.395 72.6273 468.559 72.3191 467.855 71.7029C467.238 71.0866 466.93 70.2942 466.93 69.3257V58.6286C466.93 57.6601 467.238 56.8677 467.855 56.2514C468.559 55.6351 469.395 55.327 470.364 55.327H480.665V33.5365C480.665 32.568 480.973 31.7757 481.589 31.1594C482.294 30.5431 483.086 30.2349 483.966 30.2349H499.286C500.254 30.2349 501.047 30.5431 501.663 31.1594C502.279 31.7757 502.587 32.568 502.587 33.5365V55.327H519.095C520.064 55.327 520.856 55.6351 521.472 56.2514C522.177 56.8677 522.529 57.6601 522.529 58.6286V69.3257C522.529 70.2942 522.177 71.0866 521.472 71.7029C520.856 72.3191 520.064 72.6273 519.095 72.6273H502.587V96.1346C502.587 102.65 505.097 105.907 510.115 105.907H520.284C521.252 105.907 522.045 106.215 522.661 106.832C523.277 107.448 523.585 108.24 523.585 109.209V120.698C523.585 121.579 523.277 122.371 522.661 123.076C522.045 123.692 521.252 124 520.284 124H508.002ZM566.215 125.321C555.65 125.321 547.33 122.459 541.255 116.737C535.18 111.014 532.011 102.694 531.747 91.7765V87.1543C532.099 76.7653 535.312 68.6654 541.387 62.8546C547.55 56.9558 555.782 54.0063 566.083 54.0063C573.567 54.0063 579.862 55.5471 584.968 58.6286C590.163 61.622 594.037 65.76 596.59 71.0425C599.231 76.3251 600.552 82.4 600.552 89.2673V92.4368C600.552 93.3172 600.244 94.1096 599.627 94.814C599.011 95.4303 598.219 95.7384 597.25 95.7384H554.99V96.6629C555.166 100.801 556.178 104.146 558.027 106.7C559.876 109.253 562.561 110.53 566.083 110.53C568.284 110.53 570.089 110.089 571.498 109.209C572.906 108.24 574.183 107.096 575.328 105.775C576.12 104.807 576.736 104.234 577.176 104.058C577.705 103.794 578.497 103.662 579.554 103.662H595.929C596.722 103.662 597.382 103.926 597.91 104.455C598.527 104.895 598.835 105.511 598.835 106.303C598.835 108.593 597.514 111.234 594.873 114.227C592.32 117.221 588.578 119.818 583.648 122.019C578.717 124.22 572.906 125.321 566.215 125.321ZM577.308 82.6641V82.4C577.308 78.0859 576.296 74.6963 574.271 72.2311C572.334 69.6779 569.605 68.4013 566.083 68.4013C562.649 68.4013 559.92 69.6779 557.895 72.2311C555.958 74.6963 554.99 78.0859 554.99 82.4V82.6641H577.308ZM616.234 124C615.266 124 614.473 123.692 613.857 123.076C613.241 122.459 612.933 121.667 612.933 120.698V58.6286C612.933 57.6601 613.241 56.8677 613.857 56.2514C614.473 55.6351 615.266 55.327 616.234 55.327H631.422C632.39 55.327 633.182 55.6791 633.799 56.3835C634.503 56.9998 634.855 57.7481 634.855 58.6286V63.9111C639.697 58.1884 646.213 55.327 654.401 55.327H660.211C661.18 55.327 661.972 55.6351 662.588 56.2514C663.205 56.8677 663.513 57.6601 663.513 58.6286V72.2311C663.513 73.1115 663.205 73.9039 662.588 74.6083C661.972 75.2245 661.18 75.5327 660.211 75.5327H647.401C643.791 75.5327 640.974 76.5452 638.949 78.5702C637.012 80.5071 636.044 83.2804 636.044 86.8902V120.698C636.044 121.667 635.692 122.459 634.987 123.076C634.371 123.692 633.579 124 632.61 124H616.234Z" fill="white"/>
<path fill-rule="evenodd" clip-rule="evenodd" d="M0.0069227 24.5072C0.0324019 29.3162 1.58037 34.2882 5.10123 38.8741L27.1621 67.6074C27.2457 67.7163 27.3278 67.826 27.4086 67.9363C32.0021 74.2158 31.9199 82.7891 27.1621 88.9866L5.69824 118.381C1.51336 123.832 0.359929 129.242 0.994347 134.845C2.31519 146.509 10.0397 154.78 22.1618 154.836L23.3378 155.62L23.7298 155.62C27.2589 155.605 30.8915 154.884 34.7055 153.268C35.027 153.101 35.562 152.665 35.8815 152.484C35.8815 152.484 38.5198 151.725 39.8798 150.951C68.7903 134.49 126.611 101.568 126.611 101.568C144.664 91.2887 144.664 65.3052 126.611 55.0257L35.8 3.32133C35.4805 3.13984 35.1595 2.96501 34.838 2.79802C31.1114 0.862767 27.382 -4.9293e-06 23.8235 -5.08484e-06C10.8145 -5.65348e-06 0.0766976 11.5186 0.00692271 24.2619L0.0069227 24.5072Z" fill="url(#paint0_linear_16_13)"/>
<path fill-rule="evenodd" clip-rule="evenodd" d="M27.911 68.6689C29.7505 71.4768 30.2835 74.294 30.2835 74.294C31.1957 78.9003 30.2698 82.4983 30.2698 82.4983C29.5964 85.844 26.0932 90.3409 26.0932 90.3409L21.7534 95.9679L8.84831 112.827C6.58888 115.434 3.24363 120.387 3.24363 120.387C-0.102403 126.297 0.00735255 131.337 0.00735255 131.337C-0.100445 135.552 1.02731 139.115 1.02731 139.115C1.85323 142.33 4.80728 146.588 4.80728 146.588C7.63196 150.629 11.8788 153.131 11.8788 153.131C15.5172 155.371 19.1898 156.104 19.1898 156.104C22.9267 156.886 26.4895 156.452 26.4895 156.452C26.4895 156.452 29.5603 155.962 32.6163 154.801C35.7012 153.627 39.8724 150.934 39.8724 150.934L42.8598 145.915C49.6275 133.596 50.0798 122.934 50.2233 120.83C50.2943 119.792 50.3284 118.758 50.3284 117.729C50.328 90.9826 27.2523 67.7266 27.2523 67.7266C27.2832 67.7666 27.3139 67.8129 27.3443 67.8536C27.5457 68.1234 27.7344 68.3993 27.911 68.6689Z" fill="url(#paint1_linear_16_13)"/>
<defs>
<linearGradient id="paint0_linear_16_13" x1="70.0722" y1="155.62" x2="70.0722" y2="-3.2767e-06" gradientUnits="userSpaceOnUse">
<stop stop-color="#AF49FF"/>
<stop offset="1" stop-color="#EB6FFF"/>
</linearGradient>
<linearGradient id="paint1_linear_16_13" x1="25.1618" y1="156.572" x2="25.1618" y2="67.7266" gradientUnits="userSpaceOnUse">
<stop stop-color="#AF49FF"/>
<stop offset="1" stop-color="#1E0822"/>
</linearGradient>
</defs>
</svg>
